<?xml version="1.0" encoding="UTF-8"?>
<svg id="Calque_1" data-name="Calque 1" xmlns="http://www.w3.org/2000/svg" xmlns:xlink="http://www.w3.org/1999/xlink" viewBox="0 0 723.89 723.89">
  <defs>
    <style>
      .cls-1 {
        stroke: url(#Dégradé_sans_nom_47);
        stroke-width: 9px;
      }

      .cls-1, .cls-2 {
        fill: none;
        stroke-miterlimit: 10;
      }

      .cls-2 {
        stroke: #334a9a;
        stroke-width: 8px;
      }

      .cls-3 {
        fill: #010101;
      }
    </style>
    <linearGradient id="Dégradé_sans_nom_47" data-name="Dégradé sans nom 47" x1="0" y1="361.95" x2="723.89" y2="361.95" gradientUnits="userSpaceOnUse">
      <stop offset="0" stop-color="#8079b8"/>
      <stop offset=".55" stop-color="#2d509f"/>
      <stop offset=".97" stop-color="#263688"/>
    </linearGradient>
  </defs>
  <circle class="cls-2" cx="452.08" cy="251.03" r="30.92"/>
  <polygon class="cls-3" points="109.97 484.6 131.9 484.6 240.67 241.62 352.96 484.6 374.89 484.6 250.32 219.69 231.03 219.69 109.97 484.6"/>
  <polygon class="cls-3" points="316.01 219.69 334.65 219.69 452.08 426.98 569.74 219.69 588.16 219.69 588.16 484.6 567.98 484.6 567.98 265.3 456.58 450.39 446.05 450.39 341.22 264.42 316.01 219.69"/>
  <polygon points="181.52 196.14 181.52 186.93 295.71 186.93 295.71 197.02 181.52 196.14"/>
  <circle class="cls-1" cx="361.95" cy="361.95" r="357.45"/>
</svg>